<svg width="440" height="440" xmlns="http://www.w3.org/2000/svg">

<line x1="420.0" y1="220.0" x2="168.23619097949586" y2="413.18516525781365" stroke="red" stroke-width="2"/>
<line x1="420.0" y1="220.0" x2="26.81483474218635" y2="271.7638090205042" stroke="red" stroke-width="2"/>
<line x1="413.18516525781365" y1="271.76380902050414" x2="120.0" y2="393.2050807568878" stroke="red" stroke-width="2"/>
<line x1="413.18516525781365" y1="271.76380902050414" x2="26.81483474218635" y2="271.7638090205042" stroke="red" stroke-width="2"/>
<line x1="413.18516525781365" y1="271.76380902050414" x2="119.99999999999989" y2="46.79491924311233" stroke="red" stroke-width="2"/>
<line x1="413.18516525781365" y1="271.76380902050414" x2="361.4213562373095" y2="78.57864376269049" stroke="red" stroke-width="2"/>
<line x1="46.79491924311225" y1="120.00000000000006" x2="393.2050807568878" y2="320.0" stroke="red" stroke-width="2"/>
<line x1="119.99999999999989" y1="46.79491924311233" x2="393.2050807568878" y2="320.0" stroke="red" stroke-width="2"/>
<line x1="361.4213562373095" y1="361.4213562373095" x2="220.0" y2="420.0" stroke="red" stroke-width="2"/>
<line x1="46.794919243112304" y1="320.00000000000006" x2="361.4213562373095" y2="361.4213562373095" stroke="red" stroke-width="2"/>
<line x1="78.57864376269043" y1="78.5786437626906" x2="361.4213562373095" y2="361.4213562373095" stroke="red" stroke-width="2"/>
<line x1="361.4213562373095" y1="78.57864376269049" x2="361.4213562373095" y2="361.4213562373095" stroke="red" stroke-width="2"/>
<line x1="168.2361909794957" y1="26.814834742186378" x2="320.0" y2="393.2050807568877" stroke="red" stroke-width="2"/>
<line x1="271.763809020504" y1="26.81483474218632" x2="320.0" y2="393.2050807568877" stroke="red" stroke-width="2"/>
<line x1="46.794919243112304" y1="320.00000000000006" x2="271.7638090205042" y2="413.18516525781365" stroke="red" stroke-width="2"/>
<line x1="20.0" y1="220.0" x2="220.0" y2="420.0" stroke="red" stroke-width="2"/>
<line x1="26.81483474218632" y1="168.23619097949592" x2="168.23619097949586" y2="413.18516525781365" stroke="red" stroke-width="2"/>
<line x1="119.99999999999989" y1="46.79491924311233" x2="168.23619097949586" y2="413.18516525781365" stroke="red" stroke-width="2"/>
<line x1="168.2361909794957" y1="26.814834742186378" x2="120.0" y2="393.2050807568878" stroke="red" stroke-width="2"/>
<line x1="361.4213562373095" y1="78.57864376269049" x2="120.0" y2="393.2050807568878" stroke="red" stroke-width="2"/>
<line x1="46.794919243112304" y1="320.00000000000006" x2="78.57864376269049" y2="361.4213562373095" stroke="red" stroke-width="2"/>
<line x1="46.794919243112304" y1="320.00000000000006" x2="119.99999999999989" y2="46.79491924311233" stroke="red" stroke-width="2"/>
<line x1="26.81483474218635" y1="271.7638090205042" x2="78.57864376269043" y2="78.5786437626906" stroke="red" stroke-width="2"/>
<line x1="26.81483474218635" y1="271.7638090205042" x2="271.763809020504" y2="26.81483474218632" stroke="red" stroke-width="2"/>
<line x1="26.81483474218635" y1="271.7638090205042" x2="393.2050807568877" y2="119.99999999999989" stroke="red" stroke-width="2"/>
<line x1="26.81483474218632" y1="168.23619097949592" x2="78.57864376269043" y2="78.5786437626906" stroke="red" stroke-width="2"/>
<line x1="46.79491924311225" y1="120.00000000000006" x2="361.4213562373095" y2="78.57864376269049" stroke="red" stroke-width="2"/>
<line x1="78.57864376269043" y1="78.5786437626906" x2="319.9999999999999" y2="46.79491924311219" stroke="red" stroke-width="2"/>
<line x1="168.2361909794957" y1="26.814834742186378" x2="393.2050807568877" y2="119.99999999999989" stroke="red" stroke-width="2"/>
<circle cx="420.0" cy="220.0" r="10" fill="lightblue" stroke="black" stroke-width="2"/>
<text x="420.0" y="224.0" text-anchor="middle" font-size="12" fill="black">
v0
</text>
<circle cx="413.18516525781365" cy="271.76380902050414" r="10" fill="lightblue" stroke="black" stroke-width="2"/>
<text x="413.18516525781365" y="275.76380902050414" text-anchor="middle" font-size="12" fill="black">
v1
</text>
<circle cx="393.2050807568878" cy="320.0" r="10" fill="lightblue" stroke="black" stroke-width="2"/>
<text x="393.2050807568878" y="324.0" text-anchor="middle" font-size="12" fill="black">
v2
</text>
<circle cx="361.4213562373095" cy="361.4213562373095" r="10" fill="lightblue" stroke="black" stroke-width="2"/>
<text x="361.4213562373095" y="365.4213562373095" text-anchor="middle" font-size="12" fill="black">
v3
</text>
<circle cx="320.0" cy="393.2050807568877" r="10" fill="lightblue" stroke="black" stroke-width="2"/>
<text x="320.0" y="397.2050807568877" text-anchor="middle" font-size="12" fill="black">
v4
</text>
<circle cx="271.7638090205042" cy="413.18516525781365" r="10" fill="lightblue" stroke="black" stroke-width="2"/>
<text x="271.7638090205042" y="417.18516525781365" text-anchor="middle" font-size="12" fill="black">
v5
</text>
<circle cx="220.0" cy="420.0" r="10" fill="lightblue" stroke="black" stroke-width="2"/>
<text x="220.0" y="424.0" text-anchor="middle" font-size="12" fill="black">
v6
</text>
<circle cx="168.23619097949586" cy="413.18516525781365" r="10" fill="lightblue" stroke="black" stroke-width="2"/>
<text x="168.23619097949586" y="417.18516525781365" text-anchor="middle" font-size="12" fill="black">
v7
</text>
<circle cx="120.0" cy="393.2050807568878" r="10" fill="lightblue" stroke="black" stroke-width="2"/>
<text x="120.0" y="397.2050807568878" text-anchor="middle" font-size="12" fill="black">
v8
</text>
<circle cx="78.57864376269049" cy="361.4213562373095" r="10" fill="lightblue" stroke="black" stroke-width="2"/>
<text x="78.57864376269049" y="365.4213562373095" text-anchor="middle" font-size="12" fill="black">
v9
</text>
<circle cx="46.794919243112304" cy="320.00000000000006" r="10" fill="lightblue" stroke="black" stroke-width="2"/>
<text x="46.794919243112304" y="324.00000000000006" text-anchor="middle" font-size="12" fill="black">
v10
</text>
<circle cx="26.81483474218635" cy="271.7638090205042" r="10" fill="lightblue" stroke="black" stroke-width="2"/>
<text x="26.81483474218635" y="275.7638090205042" text-anchor="middle" font-size="12" fill="black">
v11
</text>
<circle cx="20.0" cy="220.0" r="10" fill="lightblue" stroke="black" stroke-width="2"/>
<text x="20.0" y="224.0" text-anchor="middle" font-size="12" fill="black">
v12
</text>
<circle cx="26.81483474218632" cy="168.23619097949592" r="10" fill="lightblue" stroke="black" stroke-width="2"/>
<text x="26.81483474218632" y="172.23619097949592" text-anchor="middle" font-size="12" fill="black">
v13
</text>
<circle cx="46.79491924311225" cy="120.00000000000006" r="10" fill="lightblue" stroke="black" stroke-width="2"/>
<text x="46.79491924311225" y="124.00000000000006" text-anchor="middle" font-size="12" fill="black">
v14
</text>
<circle cx="78.57864376269043" cy="78.5786437626906" r="10" fill="lightblue" stroke="black" stroke-width="2"/>
<text x="78.57864376269043" y="82.5786437626906" text-anchor="middle" font-size="12" fill="black">
v15
</text>
<circle cx="119.99999999999989" cy="46.79491924311233" r="10" fill="lightblue" stroke="black" stroke-width="2"/>
<text x="119.99999999999989" y="50.79491924311233" text-anchor="middle" font-size="12" fill="black">
v16
</text>
<circle cx="168.2361909794957" cy="26.814834742186378" r="10" fill="lightblue" stroke="black" stroke-width="2"/>
<text x="168.2361909794957" y="30.814834742186378" text-anchor="middle" font-size="12" fill="black">
v17
</text>
<circle cx="219.99999999999994" cy="20.0" r="10" fill="lightblue" stroke="black" stroke-width="2"/>
<text x="219.99999999999994" y="24.0" text-anchor="middle" font-size="12" fill="black">
v18
</text>
<circle cx="271.763809020504" cy="26.81483474218632" r="10" fill="lightblue" stroke="black" stroke-width="2"/>
<text x="271.763809020504" y="30.81483474218632" text-anchor="middle" font-size="12" fill="black">
v19
</text>
<circle cx="319.9999999999999" cy="46.79491924311219" r="10" fill="lightblue" stroke="black" stroke-width="2"/>
<text x="319.9999999999999" y="50.79491924311219" text-anchor="middle" font-size="12" fill="black">
v20
</text>
<circle cx="361.4213562373095" cy="78.57864376269049" r="10" fill="lightblue" stroke="black" stroke-width="2"/>
<text x="361.4213562373095" y="82.57864376269049" text-anchor="middle" font-size="12" fill="black">
v21
</text>
<circle cx="393.2050807568877" cy="119.99999999999989" r="10" fill="lightblue" stroke="black" stroke-width="2"/>
<text x="393.2050807568877" y="123.99999999999989" text-anchor="middle" font-size="12" fill="black">
v22
</text>
<circle cx="413.18516525781365" cy="168.2361909794957" r="10" fill="lightblue" stroke="black" stroke-width="2"/>
<text x="413.18516525781365" y="172.2361909794957" text-anchor="middle" font-size="12" fill="black">
v23
</text>
</svg>
